<svg xmlns="http://www.w3.org/2000/svg" version="1.1" xmlns:xlink="http://www.w3.org/1999/xlink" xmlns:svgjs="http://svgjs.com/svgjs" width="1440" height="560" preserveAspectRatio="none" viewBox="0 0 1440 560"><g mask="url(&quot;#SvgjsMask3594&quot;)" fill="none"><rect width="1440" height="560" x="0" y="0" fill="url(#SvgjsLinearGradient3595)"></rect><path d="M-73.9 372.23L-73.9 372.23" stroke="rgba(86, 73, 73, 0.63)" stroke-width="1.5"></path><path d="M-73.9 372.23L47.76 369.3" stroke="rgba(86, 73, 73, 0.63)" stroke-width="1.5"></path><path d="M-73.9 372.23L-107.68 521.24" stroke="rgba(86, 73, 73, 0.63)" stroke-width="1.5"></path><path d="M-73.9 372.23L112.17 534.09" stroke="rgba(86, 73, 73, 0.63)" stroke-width="1.5"></path><path d="M-73.9 372.23L-41.51 668.48" stroke="rgba(86, 73, 73, 0.63)" stroke-width="1.5"></path><path d="M-107.68 521.24L-107.68 521.24" stroke="rgba(86, 73, 73, 0.63)" stroke-width="1.5"></path><path d="M-107.68 521.24L-41.51 668.48" stroke="rgba(86, 73, 73, 0.63)" stroke-width="1.5"></path><path d="M-107.68 521.24L47.76 369.3" stroke="rgba(86, 73, 73, 0.63)" stroke-width="1.5"></path><path d="M-41.51 668.48L-41.51 668.48" stroke="rgba(86, 73, 73, 0.63)" stroke-width="1.5"></path><path d="M-41.51 668.48L87.12 703.2" stroke="rgba(86, 73, 73, 0.63)" stroke-width="1.5"></path><path d="M47.76 369.3L47.76 369.3" stroke="rgba(86, 73, 73, 0.63)" stroke-width="1.5"></path><path d="M47.76 369.3L112.17 534.09" stroke="rgba(86, 73, 73, 0.63)" stroke-width="1.5"></path><path d="M47.76 369.3L251.13 354.08" stroke="rgba(86, 73, 73, 0.63)" stroke-width="1.5"></path><path d="M112.17 534.09L112.17 534.09" stroke="rgba(86, 73, 73, 0.63)" stroke-width="1.5"></path><path d="M112.17 534.09L87.12 703.2" stroke="rgba(86, 73, 73, 0.63)" stroke-width="1.5"></path><path d="M87.12 703.2L87.12 703.2" stroke="rgba(86, 73, 73, 0.63)" stroke-width="1.5"></path><path d="M87.12 703.2L-107.68 521.24" stroke="rgba(86, 73, 73, 0.63)" stroke-width="1.5"></path><path d="M87.12 703.2L382.5 677.6" stroke="rgba(86, 73, 73, 0.63)" stroke-width="1.5"></path><path d="M87.12 703.2L47.76 369.3" stroke="rgba(86, 73, 73, 0.63)" stroke-width="1.5"></path><path d="M87.12 703.2L-73.9 372.23" stroke="rgba(86, 73, 73, 0.63)" stroke-width="1.5"></path><path d="M251.13 354.08L251.13 354.08" stroke="rgba(86, 73, 73, 0.63)" stroke-width="1.5"></path><path d="M251.13 354.08L385.74 401.25" stroke="rgba(86, 73, 73, 0.63)" stroke-width="1.5"></path><path d="M251.13 354.08L112.17 534.09" stroke="rgba(86, 73, 73, 0.63)" stroke-width="1.5"></path><path d="M251.13 354.08L558.79 389.2" stroke="rgba(86, 73, 73, 0.63)" stroke-width="1.5"></path><path d="M251.13 354.08L497.69 551.5" stroke="rgba(86, 73, 73, 0.63)" stroke-width="1.5"></path><path d="M251.13 354.08L-73.9 372.23" stroke="rgba(86, 73, 73, 0.63)" stroke-width="1.5"></path><path d="M385.74 401.25L385.74 401.25" stroke="rgba(86, 73, 73, 0.63)" stroke-width="1.5"></path><path d="M385.74 401.25L558.79 389.2" stroke="rgba(86, 73, 73, 0.63)" stroke-width="1.5"></path><path d="M385.74 401.25L497.69 551.5" stroke="rgba(86, 73, 73, 0.63)" stroke-width="1.5"></path><path d="M385.74 401.25L382.5 677.6" stroke="rgba(86, 73, 73, 0.63)" stroke-width="1.5"></path><path d="M382.5 677.6L382.5 677.6" stroke="rgba(86, 73, 73, 0.63)" stroke-width="1.5"></path><path d="M382.5 677.6L524.76 655.03" stroke="rgba(86, 73, 73, 0.63)" stroke-width="1.5"></path><path d="M382.5 677.6L497.69 551.5" stroke="rgba(86, 73, 73, 0.63)" stroke-width="1.5"></path><path d="M558.79 389.2L558.79 389.2" stroke="rgba(86, 73, 73, 0.63)" stroke-width="1.5"></path><path d="M558.79 389.2L663.91 412.47" stroke="rgba(86, 73, 73, 0.63)" stroke-width="1.5"></path><path d="M558.79 389.2L497.69 551.5" stroke="rgba(86, 73, 73, 0.63)" stroke-width="1.5"></path><path d="M558.79 389.2L664.45 560.45" stroke="rgba(86, 73, 73, 0.63)" stroke-width="1.5"></path><path d="M497.69 551.5L497.69 551.5" stroke="rgba(86, 73, 73, 0.63)" stroke-width="1.5"></path><path d="M497.69 551.5L524.76 655.03" stroke="rgba(86, 73, 73, 0.63)" stroke-width="1.5"></path><path d="M497.69 551.5L664.45 560.45" stroke="rgba(86, 73, 73, 0.63)" stroke-width="1.5"></path><path d="M524.76 655.03L524.76 655.03" stroke="rgba(86, 73, 73, 0.63)" stroke-width="1.5"></path><path d="M663.91 412.47L663.91 412.47" stroke="rgba(86, 73, 73, 0.63)" stroke-width="1.5"></path><path d="M663.91 412.47L664.45 560.45" stroke="rgba(86, 73, 73, 0.63)" stroke-width="1.5"></path><path d="M663.91 412.47L836.69 374.52" stroke="rgba(86, 73, 73, 0.63)" stroke-width="1.5"></path><path d="M663.91 412.47L810.97 517.78" stroke="rgba(86, 73, 73, 0.63)" stroke-width="1.5"></path><path d="M663.91 412.47L497.69 551.5" stroke="rgba(86, 73, 73, 0.63)" stroke-width="1.5"></path><path d="M664.45 560.45L664.45 560.45" stroke="rgba(86, 73, 73, 0.63)" stroke-width="1.5"></path><path d="M664.45 560.45L666.16 686.06" stroke="rgba(86, 73, 73, 0.63)" stroke-width="1.5"></path><path d="M664.45 560.45L810.97 517.78" stroke="rgba(86, 73, 73, 0.63)" stroke-width="1.5"></path><path d="M666.16 686.06L666.16 686.06" stroke="rgba(86, 73, 73, 0.63)" stroke-width="1.5"></path><path d="M666.16 686.06L524.76 655.03" stroke="rgba(86, 73, 73, 0.63)" stroke-width="1.5"></path><path d="M666.16 686.06L816.43 699.87" stroke="rgba(86, 73, 73, 0.63)" stroke-width="1.5"></path><path d="M666.16 686.06L497.69 551.5" stroke="rgba(86, 73, 73, 0.63)" stroke-width="1.5"></path><path d="M666.16 686.06L810.97 517.78" stroke="rgba(86, 73, 73, 0.63)" stroke-width="1.5"></path><path d="M829.11 103.17L829.11 103.17" stroke="rgba(86, 73, 73, 0.63)" stroke-width="1.5"></path><path d="M829.11 103.17L846.26 243.45" stroke="rgba(86, 73, 73, 0.63)" stroke-width="1.5"></path><path d="M829.11 103.17L974.16 42.33" stroke="rgba(86, 73, 73, 0.63)" stroke-width="1.5"></path><path d="M829.11 103.17L960.85 217.28" stroke="rgba(86, 73, 73, 0.63)" stroke-width="1.5"></path><path d="M829.11 103.17L972.68 -85.15" stroke="rgba(86, 73, 73, 0.63)" stroke-width="1.5"></path><path d="M829.11 103.17L836.69 374.52" stroke="rgba(86, 73, 73, 0.63)" stroke-width="1.5"></path><path d="M829.11 103.17L947.26 351.82" stroke="rgba(86, 73, 73, 0.63)" stroke-width="1.5"></path><path d="M846.26 243.45L846.26 243.45" stroke="rgba(86, 73, 73, 0.63)" stroke-width="1.5"></path><path d="M846.26 243.45L960.85 217.28" stroke="rgba(86, 73, 73, 0.63)" stroke-width="1.5"></path><path d="M846.26 243.45L836.69 374.52" stroke="rgba(86, 73, 73, 0.63)" stroke-width="1.5"></path><path d="M846.26 243.45L947.26 351.82" stroke="rgba(86, 73, 73, 0.63)" stroke-width="1.5"></path><path d="M836.69 374.52L836.69 374.52" stroke="rgba(86, 73, 73, 0.63)" stroke-width="1.5"></path><path d="M836.69 374.52L947.26 351.82" stroke="rgba(86, 73, 73, 0.63)" stroke-width="1.5"></path><path d="M836.69 374.52L810.97 517.78" stroke="rgba(86, 73, 73, 0.63)" stroke-width="1.5"></path><path d="M810.97 517.78L810.97 517.78" stroke="rgba(86, 73, 73, 0.63)" stroke-width="1.5"></path><path d="M810.97 517.78L938.89 543.14" stroke="rgba(86, 73, 73, 0.63)" stroke-width="1.5"></path><path d="M816.43 699.87L816.43 699.87" stroke="rgba(86, 73, 73, 0.63)" stroke-width="1.5"></path><path d="M816.43 699.87L810.97 517.78" stroke="rgba(86, 73, 73, 0.63)" stroke-width="1.5"></path><path d="M816.43 699.87L1000.77 638.72" stroke="rgba(86, 73, 73, 0.63)" stroke-width="1.5"></path><path d="M816.43 699.87L938.89 543.14" stroke="rgba(86, 73, 73, 0.63)" stroke-width="1.5"></path><path d="M816.43 699.87L664.45 560.45" stroke="rgba(86, 73, 73, 0.63)" stroke-width="1.5"></path><path d="M816.43 699.87L524.76 655.03" stroke="rgba(86, 73, 73, 0.63)" stroke-width="1.5"></path><path d="M972.68 -85.15L972.68 -85.15" stroke="rgba(86, 73, 73, 0.63)" stroke-width="1.5"></path><path d="M972.68 -85.15L1095.76 -57.93" stroke="rgba(86, 73, 73, 0.63)" stroke-width="1.5"></path><path d="M972.68 -85.15L974.16 42.33" stroke="rgba(86, 73, 73, 0.63)" stroke-width="1.5"></path><path d="M974.16 42.33L974.16 42.33" stroke="rgba(86, 73, 73, 0.63)" stroke-width="1.5"></path><path d="M974.16 42.33L1095.76 -57.93" stroke="rgba(86, 73, 73, 0.63)" stroke-width="1.5"></path><path d="M974.16 42.33L960.85 217.28" stroke="rgba(86, 73, 73, 0.63)" stroke-width="1.5"></path><path d="M974.16 42.33L1161.45 86.66" stroke="rgba(86, 73, 73, 0.63)" stroke-width="1.5"></path><path d="M960.85 217.28L960.85 217.28" stroke="rgba(86, 73, 73, 0.63)" stroke-width="1.5"></path><path d="M960.85 217.28L947.26 351.82" stroke="rgba(86, 73, 73, 0.63)" stroke-width="1.5"></path><path d="M960.85 217.28L1124.68 261.36" stroke="rgba(86, 73, 73, 0.63)" stroke-width="1.5"></path><path d="M947.26 351.82L947.26 351.82" stroke="rgba(86, 73, 73, 0.63)" stroke-width="1.5"></path><path d="M947.26 351.82L1127.42 382.69" stroke="rgba(86, 73, 73, 0.63)" stroke-width="1.5"></path><path d="M947.26 351.82L938.89 543.14" stroke="rgba(86, 73, 73, 0.63)" stroke-width="1.5"></path><path d="M947.26 351.82L1124.68 261.36" stroke="rgba(86, 73, 73, 0.63)" stroke-width="1.5"></path><path d="M938.89 543.14L938.89 543.14" stroke="rgba(86, 73, 73, 0.63)" stroke-width="1.5"></path><path d="M938.89 543.14L1000.77 638.72" stroke="rgba(86, 73, 73, 0.63)" stroke-width="1.5"></path><path d="M1000.77 638.72L1000.77 638.72" stroke="rgba(86, 73, 73, 0.63)" stroke-width="1.5"></path><path d="M1000.77 638.72L1139.62 674.01" stroke="rgba(86, 73, 73, 0.63)" stroke-width="1.5"></path><path d="M1095.76 -57.93L1095.76 -57.93" stroke="rgba(86, 73, 73, 0.63)" stroke-width="1.5"></path><path d="M1095.76 -57.93L1252.86 -47.59" stroke="rgba(86, 73, 73, 0.63)" stroke-width="1.5"></path><path d="M1095.76 -57.93L1161.45 86.66" stroke="rgba(86, 73, 73, 0.63)" stroke-width="1.5"></path><path d="M1095.76 -57.93L1277.26 62.02" stroke="rgba(86, 73, 73, 0.63)" stroke-width="1.5"></path><path d="M1161.45 86.66L1161.45 86.66" stroke="rgba(86, 73, 73, 0.63)" stroke-width="1.5"></path><path d="M1161.45 86.66L1277.26 62.02" stroke="rgba(86, 73, 73, 0.63)" stroke-width="1.5"></path><path d="M1161.45 86.66L1252.86 -47.59" stroke="rgba(86, 73, 73, 0.63)" stroke-width="1.5"></path><path d="M1161.45 86.66L1124.68 261.36" stroke="rgba(86, 73, 73, 0.63)" stroke-width="1.5"></path><path d="M1161.45 86.66L1265.14 259.67" stroke="rgba(86, 73, 73, 0.63)" stroke-width="1.5"></path><path d="M1124.68 261.36L1124.68 261.36" stroke="rgba(86, 73, 73, 0.63)" stroke-width="1.5"></path><path d="M1124.68 261.36L1127.42 382.69" stroke="rgba(86, 73, 73, 0.63)" stroke-width="1.5"></path><path d="M1124.68 261.36L1265.14 259.67" stroke="rgba(86, 73, 73, 0.63)" stroke-width="1.5"></path><path d="M1127.42 382.69L1127.42 382.69" stroke="rgba(86, 73, 73, 0.63)" stroke-width="1.5"></path><path d="M1127.42 382.69L1119.22 529.52" stroke="rgba(86, 73, 73, 0.63)" stroke-width="1.5"></path><path d="M1119.22 529.52L1119.22 529.52" stroke="rgba(86, 73, 73, 0.63)" stroke-width="1.5"></path><path d="M1119.22 529.52L1139.62 674.01" stroke="rgba(86, 73, 73, 0.63)" stroke-width="1.5"></path><path d="M1119.22 529.52L1000.77 638.72" stroke="rgba(86, 73, 73, 0.63)" stroke-width="1.5"></path><path d="M1119.22 529.52L1257.35 637.66" stroke="rgba(86, 73, 73, 0.63)" stroke-width="1.5"></path><path d="M1139.62 674.01L1139.62 674.01" stroke="rgba(86, 73, 73, 0.63)" stroke-width="1.5"></path><path d="M1139.62 674.01L1257.35 637.66" stroke="rgba(86, 73, 73, 0.63)" stroke-width="1.5"></path><path d="M1252.86 -47.59L1252.86 -47.59" stroke="rgba(86, 73, 73, 0.63)" stroke-width="1.5"></path><path d="M1252.86 -47.59L1277.26 62.02" stroke="rgba(86, 73, 73, 0.63)" stroke-width="1.5"></path><path d="M1277.26 62.02L1277.26 62.02" stroke="rgba(86, 73, 73, 0.63)" stroke-width="1.5"></path><path d="M1277.26 62.02L1445.56 107.35" stroke="rgba(86, 73, 73, 0.63)" stroke-width="1.5"></path><path d="M1265.14 259.67L1265.14 259.67" stroke="rgba(86, 73, 73, 0.63)" stroke-width="1.5"></path><path d="M1265.14 259.67L1127.42 382.69" stroke="rgba(86, 73, 73, 0.63)" stroke-width="1.5"></path><path d="M1265.14 259.67L1453 226.95" stroke="rgba(86, 73, 73, 0.63)" stroke-width="1.5"></path><path d="M1265.14 259.67L1392.64 404.39" stroke="rgba(86, 73, 73, 0.63)" stroke-width="1.5"></path><path d="M1265.14 259.67L1277.26 62.02" stroke="rgba(86, 73, 73, 0.63)" stroke-width="1.5"></path><path d="M1297.45 548.47L1297.45 548.47" stroke="rgba(86, 73, 73, 0.63)" stroke-width="1.5"></path><path d="M1297.45 548.47L1257.35 637.66" stroke="rgba(86, 73, 73, 0.63)" stroke-width="1.5"></path><path d="M1297.45 548.47L1433.48 542.59" stroke="rgba(86, 73, 73, 0.63)" stroke-width="1.5"></path><path d="M1297.45 548.47L1392.64 404.39" stroke="rgba(86, 73, 73, 0.63)" stroke-width="1.5"></path><path d="M1297.45 548.47L1119.22 529.52" stroke="rgba(86, 73, 73, 0.63)" stroke-width="1.5"></path><path d="M1257.35 637.66L1257.35 637.66" stroke="rgba(86, 73, 73, 0.63)" stroke-width="1.5"></path><path d="M1432.46 -91.03L1432.46 -91.03" stroke="rgba(86, 73, 73, 0.63)" stroke-width="1.5"></path><path d="M1432.46 -91.03L1582.27 -102.84" stroke="rgba(86, 73, 73, 0.63)" stroke-width="1.5"></path><path d="M1432.46 -91.03L1252.86 -47.59" stroke="rgba(86, 73, 73, 0.63)" stroke-width="1.5"></path><path d="M1432.46 -91.03L1445.56 107.35" stroke="rgba(86, 73, 73, 0.63)" stroke-width="1.5"></path><path d="M1445.56 107.35L1445.56 107.35" stroke="rgba(86, 73, 73, 0.63)" stroke-width="1.5"></path><path d="M1445.56 107.35L1453 226.95" stroke="rgba(86, 73, 73, 0.63)" stroke-width="1.5"></path><path d="M1445.56 107.35L1582.75 82.13" stroke="rgba(86, 73, 73, 0.63)" stroke-width="1.5"></path><path d="M1445.56 107.35L1606.58 255.71" stroke="rgba(86, 73, 73, 0.63)" stroke-width="1.5"></path><path d="M1445.56 107.35L1265.14 259.67" stroke="rgba(86, 73, 73, 0.63)" stroke-width="1.5"></path><path d="M1453 226.95L1453 226.95" stroke="rgba(86, 73, 73, 0.63)" stroke-width="1.5"></path><path d="M1453 226.95L1606.58 255.71" stroke="rgba(86, 73, 73, 0.63)" stroke-width="1.5"></path><path d="M1453 226.95L1392.64 404.39" stroke="rgba(86, 73, 73, 0.63)" stroke-width="1.5"></path><path d="M1453 226.95L1582.75 82.13" stroke="rgba(86, 73, 73, 0.63)" stroke-width="1.5"></path><path d="M1392.64 404.39L1392.64 404.39" stroke="rgba(86, 73, 73, 0.63)" stroke-width="1.5"></path><path d="M1392.64 404.39L1433.48 542.59" stroke="rgba(86, 73, 73, 0.63)" stroke-width="1.5"></path><path d="M1433.48 542.59L1433.48 542.59" stroke="rgba(86, 73, 73, 0.63)" stroke-width="1.5"></path><path d="M1433.48 542.59L1596.36 509.73" stroke="rgba(86, 73, 73, 0.63)" stroke-width="1.5"></path><path d="M1433.48 542.59L1257.35 637.66" stroke="rgba(86, 73, 73, 0.63)" stroke-width="1.5"></path><path d="M1433.48 542.59L1593.34 387.9" stroke="rgba(86, 73, 73, 0.63)" stroke-width="1.5"></path><path d="M1582.27 -102.84L1582.27 -102.84" stroke="rgba(86, 73, 73, 0.63)" stroke-width="1.5"></path><path d="M1582.27 -102.84L1582.75 82.13" stroke="rgba(86, 73, 73, 0.63)" stroke-width="1.5"></path><path d="M1582.75 82.13L1582.75 82.13" stroke="rgba(86, 73, 73, 0.63)" stroke-width="1.5"></path><path d="M1582.75 82.13L1606.58 255.71" stroke="rgba(86, 73, 73, 0.63)" stroke-width="1.5"></path><path d="M1606.58 255.71L1606.58 255.71" stroke="rgba(86, 73, 73, 0.63)" stroke-width="1.5"></path><path d="M1606.58 255.71L1593.34 387.9" stroke="rgba(86, 73, 73, 0.63)" stroke-width="1.5"></path><path d="M1593.34 387.9L1593.34 387.9" stroke="rgba(86, 73, 73, 0.63)" stroke-width="1.5"></path><path d="M1593.34 387.9L1596.36 509.73" stroke="rgba(86, 73, 73, 0.63)" stroke-width="1.5"></path><path d="M1593.34 387.9L1392.64 404.39" stroke="rgba(86, 73, 73, 0.63)" stroke-width="1.5"></path><path d="M1596.36 509.73L1596.36 509.73" stroke="rgba(86, 73, 73, 0.63)" stroke-width="1.5"></path><path d="M1596.36 509.73L1392.64 404.39" stroke="rgba(86, 73, 73, 0.63)" stroke-width="1.5"></path><path d="M1596.36 509.73L1606.58 255.71" stroke="rgba(86, 73, 73, 0.63)" stroke-width="1.5"></path><circle r="5" cx="-73.9" cy="372.23" fill="rgba(86, 73, 73, 0.63)"></circle><circle r="5" cx="-107.68" cy="521.24" fill="rgba(86, 73, 73, 0.63)"></circle><circle r="5" cx="-41.51" cy="668.48" fill="rgba(86, 73, 73, 0.63)"></circle><circle r="5" cx="47.76" cy="369.3" fill="rgba(86, 73, 73, 0.63)"></circle><circle r="5" cx="112.17" cy="534.09" fill="rgba(86, 73, 73, 0.63)"></circle><circle r="5" cx="87.12" cy="703.2" fill="rgba(86, 73, 73, 0.63)"></circle><circle r="5" cx="251.13" cy="354.08" fill="rgba(86, 73, 73, 0.63)"></circle><circle r="5" cx="385.74" cy="401.25" fill="rgba(86, 73, 73, 0.63)"></circle><circle r="5" cx="382.5" cy="677.6" fill="rgba(86, 73, 73, 0.63)"></circle><circle r="5" cx="558.79" cy="389.2" fill="rgba(86, 73, 73, 0.63)"></circle><circle r="5" cx="497.69" cy="551.5" fill="rgba(86, 73, 73, 0.63)"></circle><circle r="5" cx="524.76" cy="655.03" fill="rgba(86, 73, 73, 0.63)"></circle><circle r="5" cx="663.91" cy="412.47" fill="rgba(86, 73, 73, 0.63)"></circle><circle r="5" cx="664.45" cy="560.45" fill="rgba(86, 73, 73, 0.63)"></circle><circle r="5" cx="666.16" cy="686.06" fill="rgba(86, 73, 73, 0.63)"></circle><circle r="5" cx="829.11" cy="103.17" fill="rgba(86, 73, 73, 0.63)"></circle><circle r="5" cx="846.26" cy="243.45" fill="rgba(86, 73, 73, 0.63)"></circle><circle r="5" cx="836.69" cy="374.52" fill="rgba(86, 73, 73, 0.63)"></circle><circle r="5" cx="810.97" cy="517.78" fill="rgba(86, 73, 73, 0.63)"></circle><circle r="5" cx="816.43" cy="699.87" fill="rgba(86, 73, 73, 0.63)"></circle><circle r="5" cx="972.68" cy="-85.15" fill="rgba(86, 73, 73, 0.63)"></circle><circle r="5" cx="974.16" cy="42.33" fill="rgba(86, 73, 73, 0.63)"></circle><circle r="5" cx="960.85" cy="217.28" fill="rgba(86, 73, 73, 0.63)"></circle><circle r="5" cx="947.26" cy="351.82" fill="rgba(86, 73, 73, 0.63)"></circle><circle r="5" cx="938.89" cy="543.14" fill="rgba(86, 73, 73, 0.63)"></circle><circle r="5" cx="1000.77" cy="638.72" fill="rgba(86, 73, 73, 0.63)"></circle><circle r="5" cx="1095.76" cy="-57.93" fill="rgba(86, 73, 73, 0.63)"></circle><circle r="5" cx="1161.45" cy="86.66" fill="rgba(86, 73, 73, 0.63)"></circle><circle r="5" cx="1124.68" cy="261.36" fill="rgba(86, 73, 73, 0.63)"></circle><circle r="5" cx="1127.42" cy="382.69" fill="rgba(86, 73, 73, 0.63)"></circle><circle r="5" cx="1119.22" cy="529.52" fill="rgba(86, 73, 73, 0.63)"></circle><circle r="5" cx="1139.62" cy="674.01" fill="rgba(86, 73, 73, 0.63)"></circle><circle r="5" cx="1252.86" cy="-47.59" fill="rgba(86, 73, 73, 0.63)"></circle><circle r="5" cx="1277.26" cy="62.02" fill="rgba(86, 73, 73, 0.63)"></circle><circle r="5" cx="1265.14" cy="259.67" fill="rgba(86, 73, 73, 0.63)"></circle><circle r="5" cx="1297.45" cy="548.47" fill="rgba(86, 73, 73, 0.63)"></circle><circle r="5" cx="1257.35" cy="637.66" fill="rgba(86, 73, 73, 0.63)"></circle><circle r="5" cx="1432.46" cy="-91.03" fill="rgba(86, 73, 73, 0.63)"></circle><circle r="5" cx="1445.56" cy="107.35" fill="rgba(86, 73, 73, 0.63)"></circle><circle r="5" cx="1453" cy="226.95" fill="rgba(86, 73, 73, 0.63)"></circle><circle r="5" cx="1392.64" cy="404.39" fill="rgba(86, 73, 73, 0.63)"></circle><circle r="5" cx="1433.48" cy="542.59" fill="rgba(86, 73, 73, 0.63)"></circle><circle r="5" cx="1582.27" cy="-102.84" fill="rgba(86, 73, 73, 0.63)"></circle><circle r="5" cx="1582.75" cy="82.13" fill="rgba(86, 73, 73, 0.63)"></circle><circle r="5" cx="1606.58" cy="255.71" fill="rgba(86, 73, 73, 0.63)"></circle><circle r="5" cx="1593.34" cy="387.9" fill="rgba(86, 73, 73, 0.63)"></circle><circle r="5" cx="1596.36" cy="509.73" fill="rgba(86, 73, 73, 0.63)"></circle><path d="M-49.98 662.75L-49.98 662.75" stroke="hsl(0, 100%, 90.2%)" stroke-width="1.5"></path><path d="M-49.98 662.75L78.43 710.26" stroke="hsl(0, 100%, 90.2%)" stroke-width="1.5"></path><path d="M-49.98 662.75L46.15 521.85" stroke="hsl(0, 100%, 90.2%)" stroke-width="1.5"></path><path d="M46.15 521.85L46.15 521.85" stroke="hsl(0, 100%, 90.2%)" stroke-width="1.5"></path><path d="M46.15 521.85L78.43 710.26" stroke="hsl(0, 100%, 90.2%)" stroke-width="1.5"></path><path d="M340.91 537.78L340.91 537.78" stroke="hsl(0, 100%, 90.2%)" stroke-width="1.5"></path><path d="M340.91 537.78L344.51 694.43" stroke="hsl(0, 100%, 90.2%)" stroke-width="1.5"></path><path d="M340.91 537.78L509.08 539.12" stroke="hsl(0, 100%, 90.2%)" stroke-width="1.5"></path><path d="M340.91 537.78L260.09 691.67" stroke="hsl(0, 100%, 90.2%)" stroke-width="1.5"></path><path d="M340.91 537.78L551.49 677.58" stroke="hsl(0, 100%, 90.2%)" stroke-width="1.5"></path><path d="M344.51 694.43L344.51 694.43" stroke="hsl(0, 100%, 90.2%)" stroke-width="1.5"></path><path d="M344.51 694.43L260.09 691.67" stroke="hsl(0, 100%, 90.2%)" stroke-width="1.5"></path><path d="M690.01 695.89L690.01 695.89" stroke="hsl(0, 100%, 90.2%)" stroke-width="1.5"></path><path d="M690.01 695.89L819.85 677.04" stroke="hsl(0, 100%, 90.2%)" stroke-width="1.5"></path><path d="M690.01 695.89L551.49 677.58" stroke="hsl(0, 100%, 90.2%)" stroke-width="1.5"></path><path d="M690.01 695.89L682.41 496.16" stroke="hsl(0, 100%, 90.2%)" stroke-width="1.5"></path><path d="M690.01 695.89L854.37 561.11" stroke="hsl(0, 100%, 90.2%)" stroke-width="1.5"></path><path d="M819.85 677.04L819.85 677.04" stroke="hsl(0, 100%, 90.2%)" stroke-width="1.5"></path><path d="M819.85 677.04L854.37 561.11" stroke="hsl(0, 100%, 90.2%)" stroke-width="1.5"></path><path d="M967.98 390.37L967.98 390.37" stroke="hsl(0, 100%, 90.2%)" stroke-width="1.5"></path><path d="M967.98 390.37L976.94 528.96" stroke="hsl(0, 100%, 90.2%)" stroke-width="1.5"></path><path d="M1128.29 402.11L1128.29 402.11" stroke="hsl(0, 100%, 90.2%)" stroke-width="1.5"></path><path d="M1128.29 402.11L1106.16 514.4" stroke="hsl(0, 100%, 90.2%)" stroke-width="1.5"></path><path d="M1128.29 402.11L1241.2 370.08" stroke="hsl(0, 100%, 90.2%)" stroke-width="1.5"></path><path d="M1128.29 402.11L967.98 390.37" stroke="hsl(0, 100%, 90.2%)" stroke-width="1.5"></path><path d="M1128.29 402.11L1145.31 217.25" stroke="hsl(0, 100%, 90.2%)" stroke-width="1.5"></path><path d="M1128.29 402.11L976.94 528.96" stroke="hsl(0, 100%, 90.2%)" stroke-width="1.5"></path><path d="M1128.29 402.11L1303.97 506.13" stroke="hsl(0, 100%, 90.2%)" stroke-width="1.5"></path><path d="M1299.64 211.5L1299.64 211.5" stroke="hsl(0, 100%, 90.2%)" stroke-width="1.5"></path><path d="M1299.64 211.5L1392.9 214.72" stroke="hsl(0, 100%, 90.2%)" stroke-width="1.5"></path><path d="M1299.64 211.5L1240.34 90.67" stroke="hsl(0, 100%, 90.2%)" stroke-width="1.5"></path><path d="M1440.51 -106.33L1440.51 -106.33" stroke="hsl(0, 100%, 90.2%)" stroke-width="1.5"></path><path d="M1440.51 -106.33L1566.43 -54.9" stroke="hsl(0, 100%, 90.2%)" stroke-width="1.5"></path><path d="M1440.51 -106.33L1442 87.95" stroke="hsl(0, 100%, 90.2%)" stroke-width="1.5"></path><path d="M1442 87.95L1442 87.95" stroke="hsl(0, 100%, 90.2%)" stroke-width="1.5"></path><path d="M1442 87.95L1538.7 65.38" stroke="hsl(0, 100%, 90.2%)" stroke-width="1.5"></path><path d="M1442 87.95L1392.9 214.72" stroke="hsl(0, 100%, 90.2%)" stroke-width="1.5"></path><path d="M1442 87.95L1299.64 211.5" stroke="hsl(0, 100%, 90.2%)" stroke-width="1.5"></path><path d="M1442 87.95L1566.43 -54.9" stroke="hsl(0, 100%, 90.2%)" stroke-width="1.5"></path><path d="M1442 87.95L1240.34 90.67" stroke="hsl(0, 100%, 90.2%)" stroke-width="1.5"></path><path d="M1455.35 348.41L1455.35 348.41" stroke="hsl(0, 100%, 90.2%)" stroke-width="1.5"></path><path d="M1455.35 348.41L1543.65 395.42" stroke="hsl(0, 100%, 90.2%)" stroke-width="1.5"></path><path d="M1455.35 348.41L1392.9 214.72" stroke="hsl(0, 100%, 90.2%)" stroke-width="1.5"></path><path d="M1455.35 348.41L1601.44 252.73" stroke="hsl(0, 100%, 90.2%)" stroke-width="1.5"></path><path d="M1543.65 395.42L1543.65 395.42" stroke="hsl(0, 100%, 90.2%)" stroke-width="1.5"></path><path d="M1543.65 395.42L1578.31 540.66" stroke="hsl(0, 100%, 90.2%)" stroke-width="1.5"></path><path d="M1543.65 395.42L1601.44 252.73" stroke="hsl(0, 100%, 90.2%)" stroke-width="1.5"></path><path d="M1543.65 395.42L1391.87 529.3" stroke="hsl(0, 100%, 90.2%)" stroke-width="1.5"></path><path d="M1543.65 395.42L1392.9 214.72" stroke="hsl(0, 100%, 90.2%)" stroke-width="1.5"></path><path d="M1543.65 395.42L1303.97 506.13" stroke="hsl(0, 100%, 90.2%)" stroke-width="1.5"></path><path d="M1590.28 696.34L1590.28 696.34" stroke="hsl(0, 100%, 90.2%)" stroke-width="1.5"></path><path d="M1590.28 696.34L1578.31 540.66" stroke="hsl(0, 100%, 90.2%)" stroke-width="1.5"></path><path d="M1590.28 696.34L1400.5 640.34" stroke="hsl(0, 100%, 90.2%)" stroke-width="1.5"></path><path d="M1590.28 696.34L1391.87 529.3" stroke="hsl(0, 100%, 90.2%)" stroke-width="1.5"></path><path d="M1590.28 696.34L1543.65 395.42" stroke="hsl(0, 100%, 90.2%)" stroke-width="1.5"></path><path d="M1590.28 696.34L1303.97 506.13" stroke="hsl(0, 100%, 90.2%)" stroke-width="1.5"></path><path d="M1590.28 696.34L1240.83 651.75" stroke="hsl(0, 100%, 90.2%)" stroke-width="1.5"></path><path d="M78.43 710.26L78.43 710.26" stroke="hsl(0, 100%, 90.2%)" stroke-width="1.5"></path><path d="M78.43 710.26L260.09 691.67" stroke="hsl(0, 100%, 90.2%)" stroke-width="1.5"></path><path d="M78.43 710.26L344.51 694.43" stroke="hsl(0, 100%, 90.2%)" stroke-width="1.5"></path><path d="M78.43 710.26L340.91 537.78" stroke="hsl(0, 100%, 90.2%)" stroke-width="1.5"></path><path d="M260.09 691.67L260.09 691.67" stroke="hsl(0, 100%, 90.2%)" stroke-width="1.5"></path><path d="M260.09 691.67L46.15 521.85" stroke="hsl(0, 100%, 90.2%)" stroke-width="1.5"></path><path d="M509.08 539.12L509.08 539.12" stroke="hsl(0, 100%, 90.2%)" stroke-width="1.5"></path><path d="M509.08 539.12L551.49 677.58" stroke="hsl(0, 100%, 90.2%)" stroke-width="1.5"></path><path d="M551.49 677.58L551.49 677.58" stroke="hsl(0, 100%, 90.2%)" stroke-width="1.5"></path><path d="M551.49 677.58L344.51 694.43" stroke="hsl(0, 100%, 90.2%)" stroke-width="1.5"></path><path d="M672.23 384.93L672.23 384.93" stroke="hsl(0, 100%, 90.2%)" stroke-width="1.5"></path><path d="M672.23 384.93L682.41 496.16" stroke="hsl(0, 100%, 90.2%)" stroke-width="1.5"></path><path d="M672.23 384.93L818.01 369.15" stroke="hsl(0, 100%, 90.2%)" stroke-width="1.5"></path><path d="M672.23 384.93L509.08 539.12" stroke="hsl(0, 100%, 90.2%)" stroke-width="1.5"></path><path d="M682.41 496.16L682.41 496.16" stroke="hsl(0, 100%, 90.2%)" stroke-width="1.5"></path><path d="M682.41 496.16L509.08 539.12" stroke="hsl(0, 100%, 90.2%)" stroke-width="1.5"></path><path d="M682.41 496.16L854.37 561.11" stroke="hsl(0, 100%, 90.2%)" stroke-width="1.5"></path><path d="M682.41 496.16L818.01 369.15" stroke="hsl(0, 100%, 90.2%)" stroke-width="1.5"></path><path d="M818.01 369.15L818.01 369.15" stroke="hsl(0, 100%, 90.2%)" stroke-width="1.5"></path><path d="M818.01 369.15L967.98 390.37" stroke="hsl(0, 100%, 90.2%)" stroke-width="1.5"></path><path d="M818.01 369.15L854.37 561.11" stroke="hsl(0, 100%, 90.2%)" stroke-width="1.5"></path><path d="M818.01 369.15L976.94 528.96" stroke="hsl(0, 100%, 90.2%)" stroke-width="1.5"></path><path d="M818.01 369.15L819.85 677.04" stroke="hsl(0, 100%, 90.2%)" stroke-width="1.5"></path><path d="M854.37 561.11L854.37 561.11" stroke="hsl(0, 100%, 90.2%)" stroke-width="1.5"></path><path d="M854.37 561.11L976.94 528.96" stroke="hsl(0, 100%, 90.2%)" stroke-width="1.5"></path><path d="M976.94 528.96L976.94 528.96" stroke="hsl(0, 100%, 90.2%)" stroke-width="1.5"></path><path d="M976.94 528.96L1106.16 514.4" stroke="hsl(0, 100%, 90.2%)" stroke-width="1.5"></path><path d="M1001.51 691.59L1001.51 691.59" stroke="hsl(0, 100%, 90.2%)" stroke-width="1.5"></path><path d="M1001.51 691.59L976.94 528.96" stroke="hsl(0, 100%, 90.2%)" stroke-width="1.5"></path><path d="M1001.51 691.59L819.85 677.04" stroke="hsl(0, 100%, 90.2%)" stroke-width="1.5"></path><path d="M1001.51 691.59L854.37 561.11" stroke="hsl(0, 100%, 90.2%)" stroke-width="1.5"></path><path d="M1001.51 691.59L1106.16 514.4" stroke="hsl(0, 100%, 90.2%)" stroke-width="1.5"></path><path d="M1001.51 691.59L1240.83 651.75" stroke="hsl(0, 100%, 90.2%)" stroke-width="1.5"></path><path d="M1145.31 217.25L1145.31 217.25" stroke="hsl(0, 100%, 90.2%)" stroke-width="1.5"></path><path d="M1145.31 217.25L1299.64 211.5" stroke="hsl(0, 100%, 90.2%)" stroke-width="1.5"></path><path d="M1106.16 514.4L1106.16 514.4" stroke="hsl(0, 100%, 90.2%)" stroke-width="1.5"></path><path d="M1106.16 514.4L967.98 390.37" stroke="hsl(0, 100%, 90.2%)" stroke-width="1.5"></path><path d="M1106.16 514.4L1240.83 651.75" stroke="hsl(0, 100%, 90.2%)" stroke-width="1.5"></path><path d="M1239.97 -66.81L1239.97 -66.81" stroke="hsl(0, 100%, 90.2%)" stroke-width="1.5"></path><path d="M1239.97 -66.81L1240.34 90.67" stroke="hsl(0, 100%, 90.2%)" stroke-width="1.5"></path><path d="M1239.97 -66.81L1440.51 -106.33" stroke="hsl(0, 100%, 90.2%)" stroke-width="1.5"></path><path d="M1239.97 -66.81L1442 87.95" stroke="hsl(0, 100%, 90.2%)" stroke-width="1.5"></path><path d="M1239.97 -66.81L1299.64 211.5" stroke="hsl(0, 100%, 90.2%)" stroke-width="1.5"></path><path d="M1239.97 -66.81L1145.31 217.25" stroke="hsl(0, 100%, 90.2%)" stroke-width="1.5"></path><path d="M1240.34 90.67L1240.34 90.67" stroke="hsl(0, 100%, 90.2%)" stroke-width="1.5"></path><path d="M1240.34 90.67L1145.31 217.25" stroke="hsl(0, 100%, 90.2%)" stroke-width="1.5"></path><path d="M1240.34 90.67L1392.9 214.72" stroke="hsl(0, 100%, 90.2%)" stroke-width="1.5"></path><path d="M1241.2 370.08L1241.2 370.08" stroke="hsl(0, 100%, 90.2%)" stroke-width="1.5"></path><path d="M1241.2 370.08L1303.97 506.13" stroke="hsl(0, 100%, 90.2%)" stroke-width="1.5"></path><path d="M1241.2 370.08L1299.64 211.5" stroke="hsl(0, 100%, 90.2%)" stroke-width="1.5"></path><path d="M1241.2 370.08L1145.31 217.25" stroke="hsl(0, 100%, 90.2%)" stroke-width="1.5"></path><path d="M1241.2 370.08L1106.16 514.4" stroke="hsl(0, 100%, 90.2%)" stroke-width="1.5"></path><path d="M1303.97 506.13L1303.97 506.13" stroke="hsl(0, 100%, 90.2%)" stroke-width="1.5"></path><path d="M1303.97 506.13L1391.87 529.3" stroke="hsl(0, 100%, 90.2%)" stroke-width="1.5"></path><path d="M1303.97 506.13L1240.83 651.75" stroke="hsl(0, 100%, 90.2%)" stroke-width="1.5"></path><path d="M1303.97 506.13L1400.5 640.34" stroke="hsl(0, 100%, 90.2%)" stroke-width="1.5"></path><path d="M1240.83 651.75L1240.83 651.75" stroke="hsl(0, 100%, 90.2%)" stroke-width="1.5"></path><path d="M1240.83 651.75L1400.5 640.34" stroke="hsl(0, 100%, 90.2%)" stroke-width="1.5"></path><path d="M1392.9 214.72L1392.9 214.72" stroke="hsl(0, 100%, 90.2%)" stroke-width="1.5"></path><path d="M1391.87 529.3L1391.87 529.3" stroke="hsl(0, 100%, 90.2%)" stroke-width="1.5"></path><path d="M1391.87 529.3L1400.5 640.34" stroke="hsl(0, 100%, 90.2%)" stroke-width="1.5"></path><path d="M1391.87 529.3L1578.31 540.66" stroke="hsl(0, 100%, 90.2%)" stroke-width="1.5"></path><path d="M1400.5 640.34L1400.5 640.34" stroke="hsl(0, 100%, 90.2%)" stroke-width="1.5"></path><path d="M1400.5 640.34L1578.31 540.66" stroke="hsl(0, 100%, 90.2%)" stroke-width="1.5"></path><path d="M1400.5 640.34L1543.65 395.42" stroke="hsl(0, 100%, 90.2%)" stroke-width="1.5"></path><path d="M1566.43 -54.9L1566.43 -54.9" stroke="hsl(0, 100%, 90.2%)" stroke-width="1.5"></path><path d="M1566.43 -54.9L1538.7 65.38" stroke="hsl(0, 100%, 90.2%)" stroke-width="1.5"></path><path d="M1538.7 65.38L1538.7 65.38" stroke="hsl(0, 100%, 90.2%)" stroke-width="1.5"></path><path d="M1601.44 252.73L1601.44 252.73" stroke="hsl(0, 100%, 90.2%)" stroke-width="1.5"></path><path d="M1601.44 252.73L1538.7 65.38" stroke="hsl(0, 100%, 90.2%)" stroke-width="1.5"></path><path d="M1601.44 252.73L1392.9 214.72" stroke="hsl(0, 100%, 90.2%)" stroke-width="1.5"></path><path d="M1578.31 540.66L1578.31 540.66" stroke="hsl(0, 100%, 90.2%)" stroke-width="1.5"></path><path d="M1578.31 540.66L1455.35 348.41" stroke="hsl(0, 100%, 90.2%)" stroke-width="1.5"></path><circle r="25" cx="-49.98" cy="662.75" fill="url(#SvgjsRadialGradient3596)"></circle><circle r="25" cx="46.15" cy="521.85" fill="url(#SvgjsRadialGradient3596)"></circle><circle r="25" cx="340.91" cy="537.78" fill="url(#SvgjsRadialGradient3596)"></circle><circle r="25" cx="344.51" cy="694.43" fill="url(#SvgjsRadialGradient3596)"></circle><circle r="25" cx="690.01" cy="695.89" fill="url(#SvgjsRadialGradient3596)"></circle><circle r="25" cx="819.85" cy="677.04" fill="url(#SvgjsRadialGradient3596)"></circle><circle r="25" cx="967.98" cy="390.37" fill="url(#SvgjsRadialGradient3596)"></circle><circle r="25" cx="1128.29" cy="402.11" fill="url(#SvgjsRadialGradient3596)"></circle><circle r="25" cx="1299.64" cy="211.5" fill="url(#SvgjsRadialGradient3596)"></circle><circle r="25" cx="1440.51" cy="-106.33" fill="url(#SvgjsRadialGradient3596)"></circle><circle r="25" cx="1442" cy="87.95" fill="url(#SvgjsRadialGradient3596)"></circle><circle r="25" cx="1455.35" cy="348.41" fill="url(#SvgjsRadialGradient3596)"></circle><circle r="25" cx="1543.65" cy="395.42" fill="url(#SvgjsRadialGradient3596)"></circle><circle r="25" cx="1590.28" cy="696.34" fill="url(#SvgjsRadialGradient3596)"></circle><circle r="5" cx="78.43" cy="710.26" fill="#ffb1b1"></circle><circle r="5" cx="260.09" cy="691.67" fill="#ffb1b1"></circle><circle r="5" cx="509.08" cy="539.12" fill="#ffb1b1"></circle><circle r="5" cx="551.49" cy="677.58" fill="#ffb1b1"></circle><circle r="5" cx="672.23" cy="384.93" fill="#ffb1b1"></circle><circle r="5" cx="682.41" cy="496.16" fill="#ffb1b1"></circle><circle r="5" cx="818.01" cy="369.15" fill="#ffb1b1"></circle><circle r="5" cx="854.37" cy="561.11" fill="#ffb1b1"></circle><circle r="5" cx="976.94" cy="528.96" fill="#ffb1b1"></circle><circle r="5" cx="1001.51" cy="691.59" fill="#ffb1b1"></circle><circle r="5" cx="1145.31" cy="217.25" fill="#ffb1b1"></circle><circle r="5" cx="1106.16" cy="514.4" fill="#ffb1b1"></circle><circle r="5" cx="1239.97" cy="-66.81" fill="#ffb1b1"></circle><circle r="5" cx="1240.34" cy="90.67" fill="#ffb1b1"></circle><circle r="5" cx="1241.2" cy="370.08" fill="#ffb1b1"></circle><circle r="5" cx="1303.97" cy="506.13" fill="#ffb1b1"></circle><circle r="5" cx="1240.83" cy="651.75" fill="#ffb1b1"></circle><circle r="5" cx="1392.9" cy="214.72" fill="#ffb1b1"></circle><circle r="5" cx="1391.87" cy="529.3" fill="#ffb1b1"></circle><circle r="5" cx="1400.5" cy="640.34" fill="#ffb1b1"></circle><circle r="5" cx="1566.43" cy="-54.9" fill="#ffb1b1"></circle><circle r="5" cx="1538.7" cy="65.38" fill="#ffb1b1"></circle><circle r="5" cx="1601.44" cy="252.73" fill="#ffb1b1"></circle><circle r="5" cx="1578.31" cy="540.66" fill="#ffb1b1"></circle></g><defs><mask id="SvgjsMask3594"><rect width="1440" height="560" fill="#ffffff"></rect></mask><linearGradient x1="50%" y1="100%" x2="50%" y2="0%" gradientUnits="userSpaceOnUse" id="SvgjsLinearGradient3595"><stop stop-color="rgba(255, 243, 243, 1)" offset="0"></stop><stop stop-color="rgba(255, 241, 241, 1)" offset="1"></stop></linearGradient><radialGradient id="SvgjsRadialGradient3596"><stop stop-color="#ffffff" offset="0.1"></stop><stop stop-color="rgba(255, 99, 99, 1)" offset="0.2"></stop><stop stop-color="rgba(255, 99, 99, 0)" offset="1"></stop></radialGradient></defs></svg>