<svg xmlns="http://www.w3.org/2000/svg" version="1.1" xmlns:xlink="http://www.w3.org/1999/xlink" xmlns:svgjs="http://svgjs.com/svgjs" width="1440" height="560" preserveAspectRatio="none" viewBox="0 0 1440 560"><g mask="url(&quot;#SvgjsMask1244&quot;)" fill="none"><rect width="1440" height="560" x="0" y="0" fill="rgba(255, 241, 241, 1)"></rect><path d="M0,324.514C62.849,314.599,131.89,322.559,182.599,284.129C232.179,246.554,247.07,180.888,267.188,122.021C285.508,68.414,291.018,14.271,294.152,-42.293C298.05,-112.663,326.789,-190.661,287.761,-249.346C248.566,-308.282,169.099,-328.767,98.709,-336.174C34.585,-342.922,-25.426,-313.865,-84.724,-288.544C-137.746,-265.903,-180.624,-230.797,-227.305,-196.961C-289,-152.241,-378.627,-130.159,-402.886,-57.926C-427.086,14.133,-377.281,88.74,-346.614,158.293C-315.567,228.708,-293.192,314.966,-223.802,348.242C-154.761,381.351,-75.634,336.446,0,324.514" fill="#ff6161"></path><path d="M1440 1004.932C1523.61 1023.649 1611.316 985.031 1682.656 937.581 1753.362 890.552 1801.779 818.572 1836.617 741.129 1871.308 664.013 1892.98 580.301 1881.038 496.588 1869.089 412.824 1827.509 336.116 1769.99 274.062 1713.686 213.31900000000002 1642.3319999999999 161.485 1560.24 150.49900000000002 1482.43 140.086 1416.168 201.397 1339.111 216.402 1250.8 233.599 1144.884 186.656 1076.191 244.75799999999998 1008.046 302.396 996.246 409.026 1006.558 497.68 1015.924 578.201 1081.561 636.393 1129.3609999999999 701.864 1167.665 754.328 1211.887 797.239 1258.383 842.602 1317.703 900.476 1359.127 986.828 1440 1004.932" fill="#ffffff"></path></g><defs><mask id="SvgjsMask1244"><rect width="1440" height="560" fill="#ffffff"></rect></mask></defs></svg>